<svg width="62" height="39" viewBox="0 0 62 39" fill="none" xmlns="http://www.w3.org/2000/svg">
<path d="M11.1 38.72C8.58 38.72 6.5 38.3 4.86 37.46C3.22 36.62 2 35.52 1.2 34.16C0.4 32.76 4.47035e-08 31.24 4.47035e-08 29.6C4.47035e-08 26.72 1.12 24.44 3.36 22.76C5.6 21.08 8.8 20.24 12.96 20.24H20.76V19.7C20.76 17.38 20.12 15.64 18.84 14.48C17.6 13.32 15.98 12.74 13.98 12.74C12.22 12.74 10.68 13.18 9.36 14.06C8.08 14.9 7.3 16.16 7.02 17.84H0.66C0.86 15.68 1.58 13.84 2.82 12.32C4.1 10.76 5.7 9.58 7.62 8.78C9.58 7.94 11.72 7.52 14.04 7.52C18.2 7.52 21.42 8.62 23.7 10.82C25.98 12.98 27.12 15.94 27.12 19.7V38H21.6L21.06 32.9C20.22 34.54 19 35.92 17.4 37.04C15.8 38.16 13.7 38.72 11.1 38.72ZM12.36 33.56C14.08 33.56 15.52 33.16 16.68 32.36C17.88 31.52 18.8 30.42 19.44 29.06C20.12 27.7 20.54 26.2 20.7 24.56H13.62C11.1 24.56 9.3 25 8.22 25.88C7.18 26.76 6.66 27.86 6.66 29.18C6.66 30.54 7.16 31.62 8.16 32.42C9.2 33.18 10.6 33.56 12.36 33.56ZM44.6297 38C41.7097 38 39.3897 37.3 37.6697 35.9C35.9497 34.46 35.0897 31.92 35.0897 28.28V13.58H29.9897V8.24H35.0897L35.8697 0.679998H41.4497V8.24H49.8497V13.58H41.4497V28.28C41.4497 29.92 41.7897 31.06 42.4697 31.7C43.1897 32.3 44.4097 32.6 46.1297 32.6H49.5497V38H44.6297ZM57.1275 38.36C55.9275 38.36 54.9275 37.98 54.1275 37.22C53.3675 36.42 52.9875 35.48 52.9875 34.4C52.9875 33.28 53.3675 32.34 54.1275 31.58C54.9275 30.78 55.9275 30.38 57.1275 30.38C58.3275 30.38 59.3075 30.78 60.0675 31.58C60.8275 32.34 61.2075 33.28 61.2075 34.4C61.2075 35.48 60.8275 36.42 60.0675 37.22C59.3075 37.98 58.3275 38.36 57.1275 38.36Z" fill="#181717"/>
</svg>
