<svg width="59" height="61" viewBox="0 0 59 61" fill="none" xmlns="http://www.w3.org/2000/svg">
<path d="M43.184 48.5162L17.863 20.3275L20.033 18.3281L46.0594 45.8669L43.184 48.5162Z" fill="white" stroke="black"/>
<path d="M10.3659 10.0136L16.5019 13.463C16.8795 13.6752 17.3509 13.6202 17.6695 13.3267L22.8461 8.55691L21.4618 15.4585C21.3765 15.8832 21.5745 16.3146 21.9522 16.5268L28.0882 19.9762L21.0966 20.7923C20.6663 20.8425 20.3173 21.1641 20.2321 21.5888L18.8477 28.4904L15.911 22.0932C15.7303 21.6995 15.3166 21.4669 14.8863 21.5171L7.8947 22.3332L13.0713 17.5634C13.3899 17.2699 13.4833 16.8046 13.3025 16.4108L10.3659 10.0136Z" fill="#FECE24" stroke="black"/>
<path d="M41.3443 46.5404C42.4019 46.2353 43.7833 44.8287 44.2404 43.8719" stroke="black"/>
<path d="M40.1768 45.2734C41.2344 44.9683 42.6158 43.5616 43.073 42.6049" stroke="black"/>
<path d="M39.0094 44.0063C40.067 43.7012 41.4483 42.2946 41.9055 41.3378" stroke="black"/>
<path d="M37.8419 42.7393C38.8995 42.4342 40.2809 41.0275 40.738 40.0708" stroke="black"/>
<path d="M36.6745 41.4722C37.7321 41.1671 39.1134 39.7605 39.5706 38.8037" stroke="black"/>
<circle cx="45.9612" cy="48.6453" r="2.45355" transform="rotate(-42.6575 45.9612 48.6453)" fill="#FECE24" stroke="black"/>
<circle cx="48.3447" cy="51.1814" r="0.983856" transform="rotate(-27.6575 48.3447 51.1814)" fill="#FECE24" stroke="black" stroke-width="0.5"/>
</svg>
